HIERARCHY
ROOT root
{
	OFFSET 0.000000 0.000000 0.000000
	CHANNELS 6 Xposition Yposition Zposition Zrotation Yrotation Xrotation
	JOINT lhip
	{
		OFFSET 0.058581 -0.082280 -0.017664
		CHANNELS 3 Zrotation Yrotation Xrotation
		JOINT lknee
		{
			OFFSET 0.043451 -0.386469 0.008037
			CHANNELS 3 Zrotation Yrotation Xrotation
			JOINT lankle
			{
				OFFSET -0.014790 -0.426874 -0.037428
				CHANNELS 3 Zrotation Yrotation Xrotation
				JOINT ltoe
				{
					OFFSET 0.041054 -0.060286 0.122042
					CHANNELS 3 Zrotation Yrotation Xrotation
					End Site
					{
						OFFSET 0.000000 0.000000 0.000000
					}
				}
			}
		}
	}
	JOINT rhip
	{
		OFFSET -0.060310 -0.090513 -0.013543
		CHANNELS 3 Zrotation Yrotation Xrotation
		JOINT rknee
		{
			OFFSET -0.043257 -0.383688 -0.004843
			CHANNELS 3 Zrotation Yrotation Xrotation
			JOINT rankle
			{
				OFFSET 0.019056 -0.420046 -0.034562
				CHANNELS 3 Zrotation Yrotation Xrotation
				JOINT rtoe
				{
					OFFSET -0.034840 -0.062106 0.130323
					CHANNELS 3 Zrotation Yrotation Xrotation
					End Site
					{
						OFFSET 0.000000 0.000000 0.000000
					}
				}
			}
		}
	}
	JOINT lowerback
	{
		OFFSET 0.004439 0.124404 -0.038385
		CHANNELS 3 Zrotation Yrotation Xrotation
		JOINT upperback
		{
			OFFSET 0.004488 0.137956 0.026820
			CHANNELS 3 Zrotation Yrotation Xrotation
			JOINT chest
			{
				OFFSET -0.002265 0.056032 0.002855
				CHANNELS 3 Zrotation Yrotation Xrotation
				JOINT lowerneck
				{
					OFFSET -0.013390 0.211636 -0.033468
					CHANNELS 3 Zrotation Yrotation Xrotation
					JOINT upperneck
					{
						OFFSET 0.010113 0.088937 0.050410
						CHANNELS 3 Zrotation Yrotation Xrotation
						End Site
						{
							OFFSET 0.000000 0.000000 0.000000
						}
					}
				}
				JOINT lclavicle
				{
					OFFSET 0.071702 0.114000 -0.018898
					CHANNELS 3 Zrotation Yrotation Xrotation
					JOINT lshoulder
					{
						OFFSET 0.122921 0.045205 -0.019046
						CHANNELS 3 Zrotation Yrotation Xrotation
						JOINT lelbow
						{
							OFFSET 0.255332 -0.015649 -0.022946
							CHANNELS 3 Zrotation Yrotation Xrotation
							JOINT lwrist
							{
								OFFSET 0.265709 0.012698 -0.007375
								CHANNELS 3 Zrotation Yrotation Xrotation
								End Site
								{
									OFFSET 0.000000 0.000000 0.000000
								}
							}
						}
					}
				}
				JOINT rclavicle
				{
					OFFSET -0.082954 0.112472 -0.023707
					CHANNELS 3 Zrotation Yrotation Xrotation
					JOINT rshoulder
					{
						OFFSET -0.113228 0.046853 -0.008472
						CHANNELS 3 Zrotation Yrotation Xrotation
						JOINT relbow
						{
							OFFSET -0.260127 -0.014369 -0.031269
							CHANNELS 3 Zrotation Yrotation Xrotation
							JOINT rwrist
							{
								OFFSET -0.269108 0.006794 -0.006027
								CHANNELS 3 Zrotation Yrotation Xrotation
								End Site
								{
									OFFSET 0.000000 0.000000 0.000000
								}
							}
						}
					}
				}
			}
		}
	}
}
MOTION
Frames: 11
Frame Time: 0.033333
-0.205819 -1.806528 0.958281 169.589723 0.392674 88.432146 6.150254 -3.839862 -18.492009 -8.569167 -6.836321 23.631963 -3.046179 2.979057 -13.496151 0.000000 -0.000000 0.000000 3.908974 0.920862 4.624502 -1.477900 6.374236 15.488544 -2.542855 -5.165137 -29.959192 0.000000 -0.000000 0.000000 -1.067705 6.818971 17.113062 3.304568 0.362998 6.958362 3.924713 -2.789195 6.616622 -2.747184 4.799618 -8.629138 1.132062 -1.282210 -12.108028 -22.749743 1.113847 5.423425 -51.102236 2.324491 13.652888 -3.783743 -55.959694 20.180068 1.465098 -12.261806 -24.163316 19.320043 -0.907310 4.649318 50.630099 -6.381672 11.969200 -4.922300 49.102830 11.127198 1.765050 8.550997 -13.964571 
-0.205511 -1.806065 0.956005 169.530100 0.382294 88.246503 6.102263 -3.849940 -18.787763 -8.644050 -7.147750 24.649866 -3.209384 3.048839 -13.822494 0.000000 -0.000000 0.000000 4.024572 0.711839 4.162603 -1.617740 6.432218 16.891247 -2.564132 -5.033418 -30.726293 0.000000 -0.000000 0.000000 -0.802954 6.039018 20.311730 2.776050 0.086264 5.491951 3.100853 -1.894738 4.257217 -1.949896 5.546543 -9.029456 1.123769 -1.361238 -10.854420 -21.961793 2.868025 4.858268 -50.746165 3.938425 14.129145 -7.191012 -56.083958 24.204474 1.064575 -12.885010 -24.420840 19.722745 -2.056913 4.240934 50.496350 -7.103661 12.901476 -3.653142 49.255680 12.312726 1.852686 8.777071 -13.870924 
-0.205440 -1.805282 0.952643 169.677912 0.230841 88.083544 5.854876 -3.947002 -19.331661 -8.814183 -7.254826 26.183808 -3.005335 2.959658 -14.392079 0.000000 -0.000000 0.000000 4.003991 0.518119 3.483902 -1.662296 6.406491 18.593331 -2.484519 -4.893888 -31.466098 0.000000 -0.000000 0.000000 -0.551471 3.926362 22.516092 1.767606 -1.609349 4.462812 1.687737 0.303118 2.860237 -1.447673 6.883147 -9.522244 1.483069 -1.363277 -9.913940 -21.832547 4.416410 3.610184 -49.424077 5.746690 13.834732 -10.327421 -55.415548 26.599345 0.515753 -13.366432 -23.284129 20.458819 -1.493873 4.856486 50.941858 -6.654086 13.072171 -3.426702 48.147467 12.052673 2.420180 8.881060 -12.605974 
-0.205810 -1.803830 0.947597 169.840058 0.457524 88.021029 6.059388 -3.843962 -20.456543 -9.343147 -7.149692 28.654705 -2.574950 2.833844 -15.573991 0.000000 -0.000000 0.000000 4.398844 0.716556 2.541816 -1.485538 6.420150 20.809514 -2.854972 -5.474737 -32.727376 0.000000 -0.000000 0.000000 -0.513674 3.771194 23.160587 1.760264 -1.542782 4.242072 1.613798 0.376048 2.809979 -1.331037 6.803756 -10.168054 1.450311 -1.374830 -9.774860 -22.201745 3.983947 3.720193 -49.803104 5.882811 13.508697 -9.965653 -53.906718 26.314071 0.195711 -13.279917 -22.330045 20.516981 -0.966423 4.947353 50.995610 -6.477804 12.727379 -3.517065 47.282049 11.890547 2.503383 8.925415 -12.168648 
-0.206158 -1.801353 0.944238 169.920209 0.628548 87.948624 6.219756 -3.862187 -20.972046 -9.656967 -7.057654 30.074543 -2.352228 2.799855 -16.357299 0.000000 -0.000000 0.000000 4.529667 0.711843 2.338776 -1.355943 6.321224 21.694483 -3.046888 -5.606392 -33.478256 0.000000 -0.000000 0.000000 -0.404216 3.740681 23.545666 1.699187 -1.467332 4.064423 1.503853 0.451989 2.737651 -1.250009 6.758971 -10.519119 1.512727 -1.622053 -9.505301 -22.295022 3.712283 3.720721 -50.136876 5.884487 13.338745 -9.649780 -52.846684 26.347435 -0.100524 -13.260055 -21.691444 20.509219 -0.697654 5.015083 51.259054 -6.497934 12.493012 -3.805996 46.654823 11.822448 2.461865 8.898096 -11.924779 
-0.206709 -1.795150 0.940741 170.146279 1.006404 87.833162 6.441916 -3.876681 -21.207365 -9.942053 -7.183490 31.525899 -2.148566 2.750956 -17.349171 0.000000 -0.000000 0.000000 4.665762 0.321362 2.988664 -1.241952 6.220072 21.443421 -3.181507 -5.408116 -33.942270 0.000000 -0.000000 0.000000 -0.067695 3.788086 23.820835 1.594467 -1.382739 3.864381 1.342509 0.552061 2.610429 -1.154143 6.564930 -10.819503 1.695645 -2.056823 -9.143627 -22.365288 3.450949 3.628312 -50.688111 5.765700 13.049986 -9.103454 -51.351956 26.603478 -0.808354 -13.283921 -20.496221 20.387178 -0.555834 5.028292 51.796891 -6.743133 12.094152 -4.132705 45.857267 12.005576 2.555464 8.841974 -11.593142 
-0.207433 -1.785427 0.939647 170.582486 1.472404 87.769678 6.566479 -3.996390 -20.877343 -10.076525 -7.633269 32.335583 -1.908091 2.719107 -18.289636 0.000000 -0.000000 0.000000 4.650072 -0.448269 4.766246 -1.066489 6.332108 19.370757 -3.018705 -4.920146 -33.470512 0.000000 -0.000000 0.000000 0.307169 4.017000 23.622062 1.518338 -1.455530 3.682301 1.260281 0.607371 2.485709 -1.006456 6.050542 -10.840594 2.020862 -2.358122 -8.854493 -22.455009 3.419546 3.602935 -51.294582 5.660629 12.675846 -8.319636 -50.211105 26.626903 -1.412316 -13.291424 -19.351561 20.195241 -0.702478 5.013459 52.317226 -7.221721 11.671808 -4.119118 45.326841 12.584006 2.786743 8.854656 -11.276206 
-0.208701 -1.772999 0.940835 171.186619 1.843394 87.826870 6.508041 -4.418361 -20.186081 -10.104673 -8.214517 32.552087 -1.648749 2.767299 -19.176010 0.000000 -0.000000 0.000000 4.439307 -1.388553 7.277325 -1.005986 6.562652 16.038653 -2.603367 -4.326434 -32.413112 0.000000 -0.000000 0.000000 0.500424 4.483786 22.993262 1.430632 -1.698002 3.264677 1.227964 0.595803 2.490591 -0.691306 5.398388 -10.533463 2.576082 -2.703086 -8.430599 -22.375221 3.770004 3.584627 -51.765773 5.654471 12.462256 -7.743459 -49.700086 26.498315 -1.621912 -13.392859 -18.869179 20.057408 -1.160187 4.894285 52.614167 -7.878880 11.538804 -3.603469 45.127212 13.583731 3.010123 8.956133 -11.021761 
-0.210261 -1.758155 0.942343 171.671869 1.947954 88.025909 6.286647 -5.207239 -19.293155 -10.169875 -8.618841 32.471325 -1.310576 3.018772 -20.141622 0.000000 -0.000000 0.000000 3.884745 -2.269583 10.200877 -1.085260 6.799996 11.963016 -1.829171 -3.622164 -30.932197 0.000000 -0.000000 0.000000 0.351282 5.275234 21.940613 1.258874 -2.015657 2.724617 1.131091 0.620998 2.589445 -0.246909 4.775866 -10.043584 3.425930 -3.301948 -7.769893 -22.068627 4.412020 3.453299 -51.790808 5.647178 12.499112 -7.830332 -49.755405 26.524263 -1.900946 -13.619167 -18.972940 19.952325 -1.874737 4.703575 52.840918 -8.628269 11.733729 -2.735602 45.276998 14.761631 3.473356 9.058807 -10.992309 
-0.212064 -1.738209 0.942793 171.750673 1.781614 88.325265 5.924968 -6.143885 -18.269004 -10.431357 -8.623195 32.561052 -0.266462 3.317011 -21.744302 0.000000 -0.000000 0.000000 2.859666 -2.852766 13.244657 -1.008952 7.223996 8.341019 -0.476635 -2.813436 -29.232831 0.000000 -0.000000 0.000000 -0.342033 6.586812 20.127927 0.936806 -2.150699 2.474653 0.859391 0.755641 2.635737 0.444871 3.990460 -9.474731 4.471626 -4.389869 -6.651029 -21.511082 5.147200 3.414993 -51.239326 5.382351 12.602457 -8.312815 -50.588882 26.341919 -2.373174 -13.783921 -19.818777 19.842779 -2.704921 4.650802 53.315281 -9.330231 12.130883 -1.785013 45.826937 15.808462 4.440338 9.018598 -11.367863 
-0.213444 -1.721842 0.941540 171.570263 1.718503 88.226965 5.687810 -6.386078 -17.207276 -10.783372 -8.626148 32.845777 0.551066 3.434306 -23.144201 0.000000 -0.000000 0.000000 2.132381 -3.270326 14.636155 -0.802749 7.690409 8.125110 0.496043 -2.212622 -28.747718 0.000000 -0.000000 0.000000 -0.967666 7.399121 18.923440 0.631407 -1.987576 2.667334 0.557264 0.964486 2.696945 1.056019 3.404009 -9.185409 5.184702 -5.413524 -5.883643 -21.186088 5.412236 3.344854 -50.598177 4.930178 12.511994 -8.283211 -51.449096 25.566542 -2.109374 -13.825471 -20.627966 19.931926 -2.915267 4.646472 53.650618 -9.525128 12.367889 -1.271556 46.203705 16.387666 4.921895 9.030244 -11.294212 
